<svg xmlns="http://www.w3.org/2000/svg" width="22.503" height="22.503" viewBox="0 0 22.503 22.503">
  <g id="arrow-down-left" transform="translate(28.127 30.377) rotate(-180)">
    <path id="Path_24" data-name="Path 24" d="M6.75,16.875A1.125,1.125,0,0,1,7.875,18V28.125H18a1.125,1.125,0,0,1,0,2.25H6.75A1.125,1.125,0,0,1,5.625,29.25V18A1.125,1.125,0,0,1,6.75,16.875Z" fill="#fff" fill-rule="evenodd"/>
    <path id="Path_25" data-name="Path 25" d="M27.8,8.2a1.125,1.125,0,0,1,0,1.593L7.546,30.047a1.126,1.126,0,0,1-1.593-1.593L26.2,8.2a1.125,1.125,0,0,1,1.593,0Z" fill="#fff" fill-rule="evenodd"/>
  </g>
</svg>
